<svg height="512pt" viewBox="0 0 512 512" width="512pt" xmlns="http://www.w3.org/2000/svg" xmlns:xlink="http://www.w3.org/1999/xlink"><linearGradient id="a" gradientUnits="userSpaceOnUse" x1="0" x2="512" y1="256" y2="256"><stop offset="0" stop-color="#00f38d"/><stop offset="1" stop-color="#009eff"/></linearGradient><path d="m512 256c0 141.386719-114.613281 256-256 256s-256-114.613281-256-256 114.613281-256 256-256 256 114.613281 256 256zm0 0" fill="url(#a)"/><g fill="#fff"><path d="m82.542969 184.601562h33.355469v30h-33.355469zm0 0"/><path d="m107.855469 292.167969-13.492188-26.792969 31.300781-15.765625 13.496094 26.792969zm0 0"/><path d="m107.867188 105.320312 30.632812 15.429688-13.5 26.792969-30.628906-15.429688zm0 0"/><path d="m404.125 292.183594-31.300781-15.765625 13.496093-26.792969 31.300782 15.765625zm0 0"/><path d="m404.140625 105.324219 13.496094 26.792969-30.628907 15.429687-13.496093-26.792969zm0 0"/><path d="m373.058594 198.832031h-.003906c-.414063-64.191406-52.765626-116.289062-117.054688-116.289062s-116.640625 52.097656-117.054688 116.289062l-.003906.769531h.003906c.210938 46.644532 19.777344 72.390626 37.050782 95.125 14.144531 18.609376 25.316406 33.3125 25.316406 57.5625v35.3125c0 23.078126 18.773438 41.855469 41.855469 41.855469h25.664062c23.078125 0 41.855469-18.777343 41.855469-41.855469v-35.3125c0-24.253906 11.171875-38.953124 25.316406-57.5625 17.273438-22.734374 36.839844-48.480468 37.050782-95.125zm-104.226563 200.625h-25.664062c-6.539063 0-11.855469-5.320312-11.855469-11.855469v-24.617187h49.375v24.617187c0 6.535157-5.316406 11.855469-11.855469 11.855469zm43.285157-122.882812c-12.328126 16.222656-24.976563 32.890625-29.59375 56.410156h-53.046876c-4.617187-23.519531-17.265624-40.1875-29.59375-56.410156-15.851562-20.855469-30.824218-40.5625-30.9375-77.316407.183594-47.847656 39.164063-86.714843 87.054688-86.714843s86.871094 38.867187 87.058594 86.714843c-.117188 36.753907-15.089844 56.460938-30.941406 77.316407zm0 0"/><path d="m262.53125 143.964844c-14.484375-1.613282-28.957031 2.996094-39.722656 12.632812-10.628906 9.511719-16.722656 23.128906-16.722656 37.347656h30c0-5.78125 2.390624-11.109374 6.730468-14.996093 4.480469-4.011719 10.3125-5.847657 16.40625-5.167969 9.371094 1.039062 16.914063 8.523438 17.933594 17.796875.714844 6.492187-2.523438 12.820313-10.824219 21.15625-2.109375 2.121094-4.066406 3.984375-5.957031 5.789063-9.617188 9.171874-18.699219 17.835937-18.699219 36.128906v.675781h30v-.675781c0-5.09375.613281-6.035156 9.402344-14.417969 1.9375-1.847656 4.132813-3.941406 6.515625-6.332031 9.429688-9.476563 21.703125-24.511719 19.382812-45.601563-2.542968-23.117187-21.234374-41.765625-44.445312-44.335937zm0 0"/><path d="m243.242188 275.472656h26.859374v26.855469h-26.859374zm0 0"/><path d="m396.101562 184.601562h33.355469v30h-33.355469zm0 0"/></g></svg>